<svg xmlns="http://www.w3.org/2000/svg" viewBox="0 0 320 240" width="320" height="240" role="img" aria-label="Sagoma stilizzata di un gatto">
  <title>Sagoma gatto placeholder</title>
  <rect width="320" height="240" fill="#f2c887" rx="8"/>
  <!-- Corpo -->
  <ellipse cx="160" cy="165" rx="65" ry="50" fill="#d4813a" opacity="0.8"/>
  <!-- Testa -->
  <circle cx="160" cy="100" r="45" fill="#d4813a" opacity="0.8"/>
  <!-- Orecchie -->
  <polygon points="120,65 107,35 138,60" fill="#b85c1a"/>
  <polygon points="200,65 213,35 182,60" fill="#b85c1a"/>
  <!-- Orecchie interne -->
  <polygon points="120,63 111,44 134,61" fill="#f2c887"/>
  <polygon points="200,63 209,44 186,61" fill="#f2c887"/>
  <!-- Occhi -->
  <ellipse cx="143" cy="97" rx="10" ry="12" fill="#2d1f12"/>
  <ellipse cx="177" cy="97" rx="10" ry="12" fill="#2d1f12"/>
  <circle cx="140" cy="94" r="3" fill="white"/>
  <circle cx="174" cy="94" r="3" fill="white"/>
  <!-- Naso -->
  <polygon points="160,113 155,108 165,108" fill="#b85c1a"/>
  <!-- Bocca -->
  <path d="M155,114 Q160,120 165,114" fill="none" stroke="#2d1f12" stroke-width="1.5" stroke-linecap="round"/>
  <!-- Baffi sx -->
  <line x1="155" y1="110" x2="120" y2="106" stroke="#5c3d24" stroke-width="1.2" stroke-linecap="round"/>
  <line x1="155" y1="113" x2="118" y2="113" stroke="#5c3d24" stroke-width="1.2" stroke-linecap="round"/>
  <line x1="155" y1="116" x2="120" y2="120" stroke="#5c3d24" stroke-width="1.2" stroke-linecap="round"/>
  <!-- Baffi dx -->
  <line x1="165" y1="110" x2="200" y2="106" stroke="#5c3d24" stroke-width="1.2" stroke-linecap="round"/>
  <line x1="165" y1="113" x2="202" y2="113" stroke="#5c3d24" stroke-width="1.2" stroke-linecap="round"/>
  <line x1="165" y1="116" x2="200" y2="120" stroke="#5c3d24" stroke-width="1.2" stroke-linecap="round"/>
  <!-- Coda -->
  <path d="M225,180 Q265,150 250,200 Q240,220 220,210" fill="#d4813a" opacity="0.8"/>
  <!-- Zampe -->
  <ellipse cx="130" cy="207" rx="22" ry="12" fill="#c07030"/>
  <ellipse cx="190" cy="207" rx="22" ry="12" fill="#c07030"/>
  <!-- Testo sotto -->
  <text x="160" y="232" font-family="Georgia, serif" font-size="11" fill="#5c3d24" text-anchor="middle">Foto in arrivo…</text>
</svg>
